<?xml version="1.0" encoding="UTF-8" standalone="no"?>
<svg xmlns="http://www.w3.org/2000/svg" 
viewBox="0 0 49.999997 50">
   <g fill="#61DAFB">
      <path style="fill:#008000;stroke-width:0.264583" id="path388" d="m 23.558121,2.3431699 c -0.03814,0.034499 -0.0741,0.071579 -0.114422,0.1034977 -0.270743,0.2143091 -0.575875,0.3855353 -0.879594,0.5472566 -0.499845,0.266152 -0.537582,0.2738432 -1.078329,0.5242649 -0.71448,0.2923625 -1.415661,0.6152671 -2.113821,0.9442461 -0.272201,0.1282631 -0.54588,0.2535304 -0.815355,0.3874257 -0.293756,0.1459597 -0.582703,0.301403 -0.874097,0.452021 C 17.378,5.4592759 17.07344,5.6165588 16.768908,5.7738972 15.363898,6.4810449 13.951311,7.1748369 12.509511,7.8044658 12.251141,7.917295 11.990773,8.0254911 11.731404,8.1360038 11.487015,8.23475 11.242639,8.3335288 10.998237,8.4322429 10.368036,8.6867814 10.25738,8.7345244 9.6328271,8.9742726 9.0618023,9.1934733 8.489598,9.4090338 7.9198384,9.6315754 7.1083251,9.9422086 6.2922991,10.240313 5.4757449,10.537311 4.9367281,10.722699 4.4125583,10.945891 3.8922708,11.17771 3.641966,11.283858 3.385049,11.370886 3.1282555,11.459348 c 0,0 3.2489711,2.180174 3.2489711,2.180174 v 0 c 0.2436196,-0.108048 0.4887415,-0.212757 0.7299899,-0.326092 0.5054949,-0.225643 1.0138963,-0.444171 1.525859,-0.65476 0.7877378,-0.320076 1.5812695,-0.626515 2.3578935,-0.973426 1.229464,-0.528942 2.468343,-1.036482 3.687658,-1.588701 C 15.32422,9.805378 15.593186,9.6887658 16.236161,9.3794764 17.38157,8.8285015 18.511763,8.245903 19.640677,7.662179 19.950545,7.5099991 20.25864,7.3541561 20.570281,7.2056397 21.01364,6.99435 21.847831,6.6158215 22.311618,6.4181791 c 0.555598,-0.2367672 0.980141,-0.3976722 1.536806,-0.6185077 0.221382,-0.087825 0.44237,-0.176643 0.663555,-0.2649644 0.211431,-0.08406 0.9601,-0.3791754 1.191051,-0.4802198 0.142139,-0.062187 0.280854,-0.131936 0.420522,-0.1994887 0.268764,-0.1299913 0.538849,-0.2608304 0.788526,-0.4256833 0,0 -3.353957,-2.0861453 -3.353957,-2.0861453 z" />
      <path style="fill:#008000;stroke-width:0.264583" id="path390" d="m 15.120853,6.9226718 c -0.01197,0.621961 0.01055,-0.383159 -0.02739,0.560543 -0.01125,0.2798583 -0.0077,0.5603174 -0.02463,0.839892 -0.023,0.3807156 -0.05834,0.7606348 -0.095,1.1402788 -0.09843,1.0194194 -0.190348,1.7113174 -0.315887,2.7338084 -0.06407,0.457147 -0.124235,0.91486 -0.192222,1.371441 -0.145192,0.975061 -0.250796,1.622439 -0.445543,2.58159 -0.123783,0.609648 -0.350797,1.593388 -0.504423,2.203443 -0.08503,0.337661 -0.178416,0.673164 -0.267624,1.009745 -0.33513,1.143985 -0.689939,2.282485 -1.008129,3.431412 -0.135218,0.488244 -0.26487,1.010122 -0.389547,1.501571 -0.208339,0.878422 -0.128348,0.519714 -0.316558,1.398398 -0.04776,0.222978 -0.09922,0.445212 -0.142404,0.669122 -0.04488,0.232701 -0.08093,0.467022 -0.121721,0.700472 -0.01976,0.113096 -0.233836,1.330068 -0.250838,1.426744 -0.23983,1.343401 -0.593468,2.662417 -0.90654,3.989657 -0.119373,0.536816 -0.2654873,1.072161 -0.3234798,1.620682 -0.0085,0.0804 -0.012274,0.161226 -0.018412,0.241839 -0.032192,0.479576 -0.068899,0.959012 -0.1503871,1.433074 -0.035138,0.155826 -0.012946,0.08669 -0.060548,0.209238 0,0 3.5395619,1.789437 3.5395619,1.789437 v 0 c -0.06763,-0.07899 -0.03693,-0.02349 -0.02651,-0.188452 0.0096,-0.141986 0.01639,-0.284167 0.02704,-0.426079 0.02599,-0.346221 0.07812,-0.689592 0.106771,-1.035542 0.04219,-0.634008 0.0659,-1.270109 0.171948,-1.89806 0.07162,-0.434206 0.114171,-0.707708 0.197786,-1.146623 0.184771,-0.969901 0.417998,-1.929876 0.616188,-2.897028 0.04861,-0.241568 0.100044,-0.482582 0.145817,-0.724702 0.04376,-0.231442 0.08068,-0.464129 0.122748,-0.695883 0.01994,-0.109847 0.232412,-1.244383 0.255708,-1.361583 0.04623,-0.232611 0.09707,-0.464288 0.145085,-0.69654 0.04859,-0.235005 0.09649,-0.470153 0.144738,-0.70523 0.175068,-0.771795 0.355906,-1.542621 0.550877,-2.309687 0.414942,-1.632484 0.03183,-0.06915 0.468491,-1.748975 0.08187,-0.314938 0.156993,-0.631591 0.23549,-0.947386 0.20267,-0.853431 0.307926,-1.255574 0.47392,-2.125502 0.141781,-0.743036 0.287534,-1.696744 0.400181,-2.438744 0.06822,-0.449354 0.136878,-0.898661 0.200163,-1.348737 0.06441,-0.458053 0.121934,-0.917047 0.182902,-1.375571 0.172468,-1.112896 0.227125,-1.566912 0.455102,-2.653995 0.07414,-0.353538 0.152234,-0.706594 0.247257,-1.0551004 0.06653,-0.2440228 0.159132,-0.4801848 0.236964,-0.7208424 0.307898,-0.9520132 -0.03737,0.093476 0.158532,-0.4977434 0,0 -3.495495,-1.854382 -3.495495,-1.854382 z" />
      <path style="fill:#008000;stroke-width:0.264583" id="path392" d="m 26.158033,14.657267 c 0.01565,-0.05512 0.02735,-0.111519 0.04696,-0.165358 0.176886,-0.485643 0.465434,-0.935067 0.784717,-1.337833 0.104251,-0.131509 0.217532,-0.255599 0.3263,-0.383399 0.682596,-0.736422 1.452176,-1.387091 2.276242,-1.959715 0.166759,-0.115876 0.33828,-0.224743 0.507421,-0.337114 0.647935,-0.40799 1.305118,-0.8144657 2.015916,-1.1057444 0.08236,-0.033752 0.166751,-0.062337 0.250126,-0.093506 0.06894,-0.00437 0.138697,-0.024503 0.20683,-0.013094 0.193585,0.032416 0.597578,0.3588507 0.458187,0.2826023 -3.351466,-1.8332765 -3.598336,-2.1505251 -2.182746,-1.1765428 0.227176,0.1563071 0.451114,0.31727 0.676672,0.4759052 1.059987,0.7489164 2.089038,1.5400747 3.082803,2.3746577 0.195411,0.168561 0.394274,0.333594 0.583869,0.508814 0.04106,0.03794 0.08351,0.07464 0.12114,0.115993 0.07324,0.08048 0.09605,0.128348 0.150204,0.219123 0.0098,0.037 0.02646,0.07283 0.02928,0.110991 0.01527,0.20649 -0.182756,0.434448 -0.294201,0.576507 -0.09509,0.121207 -0.19717,0.236759 -0.29554,0.355316 -0.137975,0.166289 -0.275664,0.332816 -0.413496,0.499224 -0.866039,0.977431 -0.20048,0.236357 -1.147736,1.261394 -0.225158,0.243647 -0.447445,0.489939 -0.67279,0.733413 -0.237832,0.256963 -0.481346,0.508674 -0.716725,0.767884 -0.264168,0.290912 -0.520393,0.588939 -0.781788,0.882344 -0.270433,0.30355 -0.542459,0.605677 -0.813689,0.908516 -0.267282,0.318393 -0.546375,0.627234 -0.801846,0.955181 -0.270656,0.347439 -0.520795,0.710429 -0.775534,1.069702 -0.913185,1.287916 -1.769308,2.613929 -2.627139,3.938879 -0.605393,0.993961 -1.24631,1.965639 -1.855869,2.956953 -0.213525,0.347253 -0.501473,0.826868 -0.714235,1.180018 -0.101177,0.177745 -0.206006,0.35346 -0.303532,0.533234 -0.156199,0.287927 -0.402968,0.787535 -0.548261,1.082862 -0.24897,0.506069 -0.491958,1.015045 -0.739508,1.52181 -0.249631,0.536696 -0.543996,1.050787 -0.807331,1.580541 -0.109207,0.219692 -0.213429,0.441833 -0.32194,0.661871 -0.04796,0.105212 -0.09727,0.209823 -0.143887,0.315638 -0.191595,0.434893 -0.07339,0.19064 -0.263834,0.611436 -0.09091,0.200877 -0.19138,0.392872 -0.272838,0.597752 -0.338121,1.461495 -0.129356,0.316764 3.409616,2.210305 0.05818,0.03113 0.109041,-0.0744 0.164943,-0.109461 0.06104,-0.03828 0.125277,-0.07137 0.18578,-0.110492 0.219238,-0.141775 0.430784,-0.300022 0.641921,-0.452766 0.197323,-0.144775 0.69561,-0.50855 0.879451,-0.651245 1.108972,-0.860761 -0.06444,0.01561 1.120098,-0.880177 0.319714,-0.241784 0.912124,-0.673647 1.234697,-0.909851 0.202821,-0.141918 0.405667,-0.283798 0.608464,-0.425749 0.484741,-0.339307 0.625727,-0.444164 1.108282,-0.76028 0.356499,-0.233543 0.719645,-0.456825 1.085662,-0.675029 0.0677,-0.03772 0.130479,-0.08608 0.203091,-0.113149 0.135909,-0.05067 0.155229,-0.02014 0.237461,0.07865 0.03832,0.04602 0.157001,0.174813 0.104373,0.146235 -2.986442,-1.621668 -3.997312,-2.618425 -2.824668,-1.51053 0.130652,0.149754 0.268047,0.293883 0.391954,0.449263 0.318622,0.39955 0.642996,0.880554 0.913067,1.309931 0.320177,0.509042 0.640429,1.068485 0.920929,1.60026 0.137711,0.261075 0.26538,0.527326 0.398071,0.790988 0.446067,0.902452 0.833687,1.832602 1.163474,2.783475 0,0 3.529303,1.608733 3.529303,1.608733 v 0 C 35.108948,38.586868 34.670719,37.573384 34.163423,36.596672 33.450251,35.189081 32.7139,33.788408 31.842196,32.471 c -1.030303,-1.350616 -0.2461,-0.393051 -3.712705,-2.40933 -0.06348,-0.03693 -0.144679,-0.03831 -0.217897,-0.03261 -0.210831,0.01643 -0.374333,0.189479 -0.525262,0.313793 -0.183703,0.156404 -0.346887,0.297003 -0.536612,0.450223 -0.667765,0.539285 -1.363232,1.042596 -2.055507,1.549567 -0.617346,0.449289 -1.230589,0.906531 -1.859395,1.339787 -0.192156,0.1324 -0.388503,0.258611 -0.582662,0.388056 -0.634858,0.423251 -0.306751,0.21358 -0.923961,0.594135 -0.325396,0.167129 -0.394377,0.222536 -0.720844,0.325104 -0.06038,0.01897 -0.122389,0.04223 -0.185631,0.03985 -0.03242,-0.0013 -0.111202,-0.06686 -0.08351,-0.04997 3.325112,2.02778 4.53522,1.655188 3.201603,2.037694 -0.0013,-0.03915 -0.01018,-0.07879 -0.0039,-0.117449 0.01835,-0.1128 0.115114,-0.372832 0.150232,-0.462968 0.121091,-0.310793 0.257278,-0.616032 0.387616,-0.922962 0.340814,-0.766585 0.703608,-1.523224 1.04015,-2.291757 0.482756,-1.060339 0.972227,-2.118119 1.523296,-3.145163 0.760103,-1.429914 1.578401,-2.827636 2.384655,-4.231803 0.408538,-0.718535 0.65682,-1.168235 1.094549,-1.881961 0.408427,-0.665952 0.927799,-1.475518 1.38616,-2.105175 0.651674,-0.895215 0.892771,-1.142643 1.605182,-1.971218 0.275649,-0.297993 0.545725,-0.60124 0.826948,-0.893977 0.274878,-0.286132 0.561488,-0.560761 0.841052,-0.842315 0.892095,-0.898445 1.778092,-1.804299 2.720702,-2.650618 0.260805,-0.235646 0.603883,-0.537922 0.859706,-0.793826 0.149518,-0.149568 0.356084,-0.361172 0.460248,-0.554906 0.07984,-0.148494 0.07345,-0.25854 0.08689,-0.418626 -0.0098,-0.06339 -0.01082,-0.128745 -0.0293,-0.190161 -0.02357,-0.07835 -0.14098,-0.285677 -0.188412,-0.343051 -0.04894,-0.05919 -0.109112,-0.108259 -0.167045,-0.158672 -0.103277,-0.08987 -0.443352,-0.354155 -0.529738,-0.421966 -1.06571,-0.844221 -2.144239,-1.672027 -3.249266,-2.464437 C 34.633425,10.002099 34.426942,9.8504064 34.221194,9.6977215 34.049868,9.5705807 33.890576,9.425725 33.708323,9.3148136 32.505942,8.5830941 31.295772,7.8635613 30.070114,7.1715425 29.944741,7.1007556 29.803909,7.0543202 29.661965,7.0302013 29.471208,6.997788 29.319637,7.0801205 29.151732,7.1444159 28.410385,7.5528465 27.704403,8.0208505 27.00825,8.5014738 c -0.367737,0.263538 -0.65865,0.4678548 -1.019671,0.7440594 -0.340881,0.2607964 -0.685202,0.5417042 -1.013832,0.8178078 -0.158626,0.133271 -0.320813,0.262703 -0.472277,0.404061 -0.13025,0.12156 -0.247966,0.255891 -0.371949,0.383837 -0.115112,0.132356 -0.233197,0.262183 -0.345335,0.397068 -0.391471,0.470876 -0.753065,0.967712 -1.081565,1.484281 0,0 3.454411,1.924679 3.454412,1.924679 z" />
      <path style="fill:#008000;stroke-width:0.264583" id="path394" d="m 38.450416,25.926601 c 0.02244,-0.07351 0.03874,-0.14919 0.06732,-0.220542 0.16084,-0.401551 0.263369,-0.559744 0.50102,-0.951971 0.13961,-0.230414 0.28116,-0.459714 0.427474,-0.685929 0.539099,-0.833498 0.609029,-0.908503 1.206328,-1.740238 0.664835,-0.937416 1.357953,-1.854871 2.018292,-2.795497 0.477872,-0.680713 0.932625,-1.37778 1.390073,-2.072262 0.09205,-0.138335 0.17992,-0.279541 0.276143,-0.415005 0.06239,-0.08783 0.125027,-0.176395 0.19934,-0.254389 0.03434,-0.03604 0.08918,-0.120482 0.123312,-0.08424 0.04198,0.04457 0.02191,0.209065 -0.03238,0.180789 -3.393442,-1.767045 -3.49773,-3.239857 -3.328291,-1.722083 -0.0045,0.134351 -0.0062,0.268823 -0.01342,0.403052 -0.05693,1.054433 -0.02357,0.02321 -0.08251,1.264677 -0.0066,0.13987 -0.07016,1.979872 -0.07085,2.021046 -0.0082,0.49029 -0.0036,0.98071 -0.0054,1.471065 -0.0033,2.504463 -0.154308,5.006596 -0.377346,7.500311 -0.07579,0.847352 -0.223232,2.281767 -0.311108,3.150127 -0.191336,1.80173 -0.388929,3.602741 -0.570161,5.405524 -0.09323,0.813949 -0.142394,1.631453 -0.190685,2.44897 -0.03842,0.604997 -0.0533,1.210935 -0.106164,1.814947 -0.03032,0.287988 -0.06756,0.57476 -0.120507,0.859385 -0.04855,0.227409 -0.07813,0.458026 -0.122595,0.686194 -0.05124,0.23704 -0.106482,0.473361 -0.164227,0.708917 -0.02257,0.08067 -0.03824,0.162779 -0.05214,0.245279 0,0 3.493823,1.857523 3.493823,1.857523 v 0 c 0.01455,-0.07957 0.02365,-0.159207 0.03493,-0.239302 0.04269,-0.240906 0.0941,-0.48043 0.147087,-0.71923 0.05085,-0.229595 0.103161,-0.458864 0.145092,-0.690274 0.0078,-0.04998 0.02911,-0.182915 0.03428,-0.229002 0.0263,-0.234421 0.02164,-0.471435 0.03699,-0.70656 0.01474,-0.615272 0.03957,-1.230222 0.05115,-1.845569 0.03403,-0.834178 0.07886,-1.667954 0.0825,-2.503072 0.01802,-1.877753 0.04288,-3.75557 0.119902,-5.632045 0.05021,-1.216123 0.07917,-2.004499 0.145626,-3.235867 0.07329,-1.357935 0.144238,-2.433209 0.24614,-3.793052 0.0471,-0.628586 0.09113,-1.257493 0.149989,-1.885087 0.05378,-0.573486 0.125273,-1.145174 0.187907,-1.717761 0.05838,-0.459774 0.119163,-0.919251 0.175149,-1.379323 0.04243,-0.348703 0.07507,-0.698582 0.1201,-1.046959 0.105272,-0.814489 0.239638,-1.628792 0.446717,-2.42407 0.424918,-1.528814 0.206642,-0.427798 -3.30263,-2.421968 -0.06324,-0.03594 -0.0938,0.112123 -0.130299,0.175041 -0.03113,0.05367 -0.04772,0.114561 -0.07105,0.17206 -0.04173,0.102868 -0.08149,0.206534 -0.124111,0.309036 -0.06326,0.152159 -0.129013,0.303273 -0.193521,0.454909 -0.269661,0.569196 -0.342839,0.74808 -0.671613,1.325745 -0.72726,1.277819 -1.588651,2.473049 -2.497595,3.626616 -1.400646,1.751848 -0.02048,0.03629 -1.354318,1.664741 -1.014989,1.239171 -0.06543,0.08977 -0.913696,1.146825 -0.103703,0.129228 -0.214379,0.252802 -0.316757,0.383082 -0.05127,0.06524 -0.09593,0.135406 -0.143893,0.203109 0,0 3.440575,1.93233 3.440575,1.93233 z" />
   </g>
</svg>